<svg xmlns="http://www.w3.org/2000/svg" version="1.1" xmlns:xlink="http://www.w3.org/1999/xlink" viewBox="0 0 200 200"><rect width="200" height="200" fill="url('#gradient')"></rect><defs><linearGradient id="gradient" gradientTransform="rotate(187 0.5 0.5)"><stop offset="0%" stop-color="#aa7660"></stop><stop offset="100%" stop-color="#8fa983"></stop></linearGradient></defs><g><g fill="#445272" transform="matrix(2.6828332063975626,0,0,2.6828332063975626,11.064662778230456,114.39460909977817)" stroke="#c8512e" stroke-width="0.2"><path d="M4.39-15L4.39 0L1.09 0L1.09-15L4.39-15ZM9.89-15L9.89 0L6.59 0L6.59-15L9.89-15ZM15.39-15L15.39 0L12.09 0L12.09-15L15.39-15ZM20.89-15L20.89 0L17.59 0L17.59-15L20.89-15ZM28.03 0.20L28.03 0.20Q25.60 0.20 24.09-1.25Q22.59-2.71 22.59-5.03L22.59-5.03L22.59-5.30Q22.59-6.92 23.19-8.16Q23.79-9.40 24.94-10.08Q26.09-10.76 27.68-10.76L27.68-10.76Q29.90-10.76 31.19-9.38Q32.48-8.00 32.48-5.53L32.48-5.53L32.48-4.25L25.94-4.25Q26.11-3.36 26.71-2.85Q27.30-2.34 28.25-2.34L28.25-2.34Q29.81-2.34 30.69-3.44L30.69-3.44L32.20-1.66Q31.58-0.81 30.45-0.31Q29.33 0.20 28.03 0.20ZM27.66-8.22L27.66-8.22Q26.21-8.22 25.94-6.31L25.94-6.31L29.26-6.31L29.26-6.56Q29.28-7.35 28.86-7.79Q28.44-8.22 27.66-8.22ZM41.04-14.22L41.04 0L37.74 0L37.74-10.51L34.50-9.56L34.50-12.06L40.74-14.22L41.04-14.22ZM47.94-10.57L49.61-4.61L51.37-10.57L54.89-10.57L50.59 1.77L50.40 2.22Q49.48 4.27 47.16 4.27L47.16 4.27Q46.51 4.27 45.80 4.07L45.80 4.07L45.80 1.72L46.23 1.72Q46.92 1.72 47.29 1.52Q47.66 1.32 47.83 0.80L47.83 0.80L48.10 0.10L44.42-10.57L47.94-10.57ZM58.96-15L58.96-9.43Q60.02-10.76 61.66-10.76L61.66-10.76Q63.41-10.76 64.30-9.73Q65.19-8.69 65.21-6.67L65.21-6.67L65.21 0L61.90 0L61.90-6.59Q61.90-7.43 61.56-7.83Q61.22-8.22 60.40-8.22L60.40-8.22Q59.38-8.22 58.96-7.58L58.96-7.58L58.96 0L55.67 0L55.67-15L58.96-15Z"></path></g></g></svg>